<svg width="239" height="96" viewBox="0 0 239 96" fill="none" xmlns="http://www.w3.org/2000/svg">
<path d="M76.4352 42.7383C78.9628 42.7383 81.0123 40.6888 81.0123 38.1603C81.0123 35.6318 78.9637 33.5823 76.4352 33.5823C73.9067 33.5823 71.858 35.6318 71.858 38.1603C71.858 40.6888 73.9067 42.7383 76.4352 42.7383ZM227.484 58.3804C226.787 57.8908 226.25 57.8095 225.804 58.7605C218.116 75.4101 205.163 67.1016 206.45 67.8325C209.323 66.5183 216.88 60.4573 215.738 52.0888C215.044 46.9743 210.655 44.7056 205.995 45.5178C197.862 46.9354 194.87 55.7079 196.393 63.4746C196.66 64.8082 197.135 65.9085 197.612 66.9859C188.421 74.46 184.771 60.2956 184.357 58.6023C184.34 58.5121 191.454 52.5828 193.431 38.4555C195.506 23.6486 190.782 20.9522 185.952 21.0361C177.014 21.1917 174.599 39.866 177.843 55.4304C177.571 55.5011 176.306 56.2019 174.275 56.2806C172.812 51.6787 166.564 47.646 164.928 49.1997C160.836 53.0875 165.921 60.6889 169.499 61.2846C167.35 74.5237 153.907 71.2448 156.41 54.6579C160.787 46.5289 164.116 34.4414 163.522 27.144C163.312 24.5607 161.402 21.0989 157.082 21.2712C148.774 21.6 147.871 40.2797 148.845 53.5373C148.796 53.2112 148.334 55.1484 144.929 56.1109C144.124 51.6407 136.926 47.1537 135.232 49.311C132.06 53.3491 137.557 60.5475 140.16 61.0504C138.011 74.2895 124.569 71.0106 127.071 54.4237C131.448 46.2947 134.777 34.2072 134.183 26.9106C133.973 24.3265 132.063 20.8656 127.743 21.037C119.435 21.3658 118.532 40.0455 119.506 53.304C119.457 52.9726 118.983 54.9735 115.44 55.9209C115.322 50.1215 108.098 47.4613 106.362 49.3119C103.269 52.6102 107.07 59.3791 110.586 61.0512C108.437 74.2903 94.9946 71.0115 97.4966 54.4246C101.874 46.2956 105.203 34.2081 104.609 26.9115C104.399 24.3273 102.489 20.8664 98.1692 21.0379C89.8607 21.3667 89.1926 40.9858 90.1665 54.2434C87.4303 65.9686 78.2522 80.6112 79.4445 51.2792C79.562 49.2218 79.691 48.4405 78.665 47.6699C77.8961 47.0715 76.1479 47.3597 75.1926 47.3826C74.0313 47.4295 73.7405 48.1082 73.4833 49.1361C72.885 51.7883 72.7781 54.3592 72.6923 57.867C72.6367 59.5082 72.505 60.2735 71.8731 62.5113C71.242 64.7481 67.6415 68.8374 65.6698 68.1533C62.9345 67.213 63.8324 59.4922 64.345 54.1878C64.7719 49.996 63.4046 48.1135 59.9013 47.4286C57.8501 47.0008 56.6039 47.0662 54.4678 46.3937C52.4475 45.7574 51.9906 41.9359 47.6821 43.2094C45.3259 43.9067 46.8408 48.8992 46.2743 52.6005C43.4894 70.8047 37.6962 71.3049 35.0078 62.4618C47.113 32.8108 38.5093 21.1227 33.4726 21.1227C28.4359 21.1227 22.2309 24.7357 24.77 47.8537C23.5354 47.4931 23.1562 47.2996 21.804 47.2996C14.1611 47.2996 8.9538 53.479 8.9538 61.1007C8.9538 68.7225 14.1619 74.9028 21.8049 74.9028C26.3166 74.9028 29.485 72.8507 31.8845 69.6761C33.4497 71.9183 35.356 74.9373 38.8416 74.8012C49.2323 74.3964 52.2539 53.083 52.611 51.8944C53.7219 52.0658 54.7727 52.3893 55.7988 52.5607C57.508 52.817 57.6318 53.494 57.5929 55.213C57.1395 69.7088 59.8147 74.7844 65.8828 74.7844C69.2633 74.7844 72.277 71.4631 74.3521 69.0875C75.9022 72.2877 78.3733 74.6863 81.6875 74.7835C89.7184 74.9832 92.7931 62.1834 92.513 63.8679C92.2929 65.19 95.1184 74.7119 103.386 74.7464C113.627 74.7897 115.531 63.5276 115.758 61.6407C115.787 61.2651 115.799 61.304 115.758 61.6407L115.75 61.7547C119.002 61.1502 120.679 59.4065 120.679 59.4065C120.679 59.4065 123.29 74.9205 132.96 74.7464C143.003 74.5643 144.897 64.384 145.145 62.399C145.178 61.928 145.197 61.9827 145.145 62.399C145.143 62.4185 145.142 62.4379 145.141 62.4573C149.004 61.0521 150.019 59.6425 150.019 59.6425C150.019 59.6425 152.094 74.848 162.3 74.9815C171.395 75.1008 174.766 65.7866 174.785 61.8882C176.32 61.905 179.157 60.9779 179.09 60.9257C179.09 60.9257 182.422 74.2205 191.725 74.9037C196.093 75.2245 199.37 72.4459 201.237 71.1785C205.627 74.7331 220.244 79.274 229.473 63.6257C230.776 61.38 227.975 58.7269 227.483 58.3804H227.484ZM21.4364 69.7406C16.9768 69.7406 14.1169 65.6169 14.1169 61.1714C14.1169 56.726 16.7417 52.6023 21.2013 52.6023C23.2084 52.6023 24.3246 52.8232 25.8871 54.1825C26.1708 55.2996 26.9742 57.8758 27.3648 59.0451C27.8889 60.6102 28.5111 61.943 29.1394 63.3933C28.2424 67.1131 25.3003 69.7406 21.4364 69.7406ZM32.3034 54.3124C32.1178 54.0172 32.1567 54.1984 31.949 53.9191C31.1315 51.6955 29.5566 46.7322 29.3736 41.0945C29.1677 34.7171 30.23 27.2421 33.3639 27.2421C35.4868 27.2421 37.744 42.3919 32.3025 54.3124H32.3034ZM95.0945 47.6672C94.5916 43.8828 94.5651 27.0123 98.6155 27.4763C100.851 28.3821 97.1979 44.3018 95.0945 47.6672ZM124.669 47.6672C124.166 43.8828 124.139 27.0123 128.19 27.4763C130.426 28.3821 126.772 44.3018 124.669 47.6672ZM154.008 47.9023C153.505 44.117 153.479 27.2465 157.529 27.7114C159.765 28.6172 156.111 44.5377 154.008 47.9023ZM186.399 26.4891C190.102 26.1055 189.949 42.2752 182.517 52.4847C181.558 48.7949 180.089 27.7564 186.399 26.4891ZM201.963 61.2846C200.773 55.2766 203.847 51.3314 207.014 50.8983C208.122 50.7216 209.727 51.4392 210.047 52.7799C210.572 55.3075 209.971 59.0565 202.88 63.8131C202.891 63.8537 202.228 62.6226 201.963 61.2846H201.963Z" fill="black"/>
</svg>
