<svg width="194" height="49" viewBox="0 0 194 49" fill="none" xmlns="http://www.w3.org/2000/svg">
<path d="M19.9558 5.03313V24.0177L15.6291 21.5453C7.94702 17.1303 3.1788 8.91833 3.1788 0H0V21.7219C0 28.7859 4.06181 35.3201 10.5077 38.4106L20.0442 43.0023V24.0177L24.3709 26.4901C32.053 30.9051 36.8212 39.117 36.8212 48.0354H40V26.3135C40 19.2495 35.9382 12.7152 29.4923 9.62473L19.9558 5.03313Z" fill="white"/>
<path d="M79.91 20.9143C79.91 22.1343 79.63 23.2543 79.07 24.2743C78.51 25.2743 77.65 26.0843 76.49 26.7043C75.33 27.3243 73.89 27.6343 72.17 27.6343H68.99V35.1943H63.86V14.1343H72.17C73.85 14.1343 75.27 14.4243 76.43 15.0043C77.59 15.5843 78.46 16.3843 79.04 17.4043C79.62 18.4243 79.91 19.5943 79.91 20.9143ZM71.78 23.5543C72.76 23.5543 73.49 23.3243 73.97 22.8643C74.45 22.4043 74.69 21.7543 74.69 20.9143C74.69 20.0743 74.45 19.4243 73.97 18.9643C73.49 18.5043 72.76 18.2743 71.78 18.2743H68.99V23.5543H71.78ZM81.5607 26.7943C81.5607 25.0743 81.8807 23.5643 82.5207 22.2643C83.1807 20.9643 84.0707 19.9643 85.1907 19.2643C86.3107 18.5643 87.5607 18.2143 88.9407 18.2143C90.1207 18.2143 91.1507 18.4543 92.0307 18.9343C92.9307 19.4143 93.6207 20.0443 94.1007 20.8243V18.4543H99.2307V35.1943H94.1007V32.8243C93.6007 33.6043 92.9007 34.2343 92.0007 34.7143C91.1207 35.1943 90.0907 35.4343 88.9107 35.4343C87.5507 35.4343 86.3107 35.0843 85.1907 34.3843C84.0707 33.6643 83.1807 32.6543 82.5207 31.3543C81.8807 30.0343 81.5607 28.5143 81.5607 26.7943ZM94.1007 26.8243C94.1007 25.5443 93.7407 24.5343 93.0207 23.7943C92.3207 23.0543 91.4607 22.6843 90.4407 22.6843C89.4207 22.6843 88.5507 23.0543 87.8307 23.7943C87.1307 24.5143 86.7807 25.5143 86.7807 26.7943C86.7807 28.0743 87.1307 29.0943 87.8307 29.8543C88.5507 30.5943 89.4207 30.9643 90.4407 30.9643C91.4607 30.9643 92.3207 30.5943 93.0207 29.8543C93.7407 29.1143 94.1007 28.1043 94.1007 26.8243ZM113.142 18.2743C115.102 18.2743 116.662 18.9143 117.822 20.1943C119.002 21.4543 119.592 23.1943 119.592 25.4143V35.1943H114.492V26.1043C114.492 24.9843 114.202 24.1143 113.622 23.4943C113.042 22.8743 112.262 22.5643 111.282 22.5643C110.302 22.5643 109.522 22.8743 108.942 23.4943C108.362 24.1143 108.072 24.9843 108.072 26.1043V35.1943H102.942V18.4543H108.072V20.6743C108.592 19.9343 109.292 19.3543 110.172 18.9343C111.052 18.4943 112.042 18.2743 113.142 18.2743ZM122.137 26.7943C122.137 25.0743 122.457 23.5643 123.097 22.2643C123.757 20.9643 124.647 19.9643 125.767 19.2643C126.887 18.5643 128.137 18.2143 129.517 18.2143C130.617 18.2143 131.617 18.4443 132.517 18.9043C133.437 19.3643 134.157 19.9843 134.677 20.7643V12.9943H139.807V35.1943H134.677V32.7943C134.197 33.5943 133.507 34.2343 132.607 34.7143C131.727 35.1943 130.697 35.4343 129.517 35.4343C128.137 35.4343 126.887 35.0843 125.767 34.3843C124.647 33.6643 123.757 32.6543 123.097 31.3543C122.457 30.0343 122.137 28.5143 122.137 26.7943ZM134.677 26.8243C134.677 25.5443 134.317 24.5343 133.597 23.7943C132.897 23.0543 132.037 22.6843 131.017 22.6843C129.997 22.6843 129.127 23.0543 128.407 23.7943C127.707 24.5143 127.357 25.5143 127.357 26.7943C127.357 28.0743 127.707 29.0943 128.407 29.8543C129.127 30.5943 129.997 30.9643 131.017 30.9643C132.037 30.9643 132.897 30.5943 133.597 29.8543C134.317 29.1143 134.677 28.1043 134.677 26.8243ZM151.138 35.4343C149.498 35.4343 148.018 35.0843 146.698 34.3843C145.398 33.6843 144.368 32.6843 143.608 31.3843C142.868 30.0843 142.498 28.5643 142.498 26.8243C142.498 25.1043 142.878 23.5943 143.638 22.2943C144.398 20.9743 145.438 19.9643 146.758 19.2643C148.078 18.5643 149.558 18.2143 151.198 18.2143C152.838 18.2143 154.318 18.5643 155.638 19.2643C156.958 19.9643 157.998 20.9743 158.758 22.2943C159.518 23.5943 159.898 25.1043 159.898 26.8243C159.898 28.5443 159.508 30.0643 158.728 31.3843C157.968 32.6843 156.918 33.6843 155.578 34.3843C154.258 35.0843 152.778 35.4343 151.138 35.4343ZM151.138 30.9943C152.118 30.9943 152.948 30.6343 153.628 29.9143C154.328 29.1943 154.678 28.1643 154.678 26.8243C154.678 25.4843 154.338 24.4543 153.658 23.7343C152.998 23.0143 152.178 22.6543 151.198 22.6543C150.198 22.6543 149.368 23.0143 148.708 23.7343C148.048 24.4343 147.718 25.4643 147.718 26.8243C147.718 28.1643 148.038 29.1943 148.678 29.9143C149.338 30.6343 150.158 30.9943 151.138 30.9943ZM167.75 21.2443C168.35 20.3243 169.1 19.6043 170 19.0843C170.9 18.5443 171.9 18.2743 173 18.2743V23.7043H171.59C170.31 23.7043 169.35 23.9843 168.71 24.5443C168.07 25.0843 167.75 26.0443 167.75 27.4243V35.1943H162.62V18.4543H167.75V21.2443ZM174.432 26.7943C174.432 25.0743 174.752 23.5643 175.392 22.2643C176.052 20.9643 176.942 19.9643 178.062 19.2643C179.182 18.5643 180.432 18.2143 181.812 18.2143C182.992 18.2143 184.022 18.4543 184.902 18.9343C185.802 19.4143 186.492 20.0443 186.972 20.8243V18.4543H192.102V35.1943H186.972V32.8243C186.472 33.6043 185.772 34.2343 184.872 34.7143C183.992 35.1943 182.962 35.4343 181.782 35.4343C180.422 35.4343 179.182 35.0843 178.062 34.3843C176.942 33.6643 176.052 32.6543 175.392 31.3543C174.752 30.0343 174.432 28.5143 174.432 26.7943ZM186.972 26.8243C186.972 25.5443 186.612 24.5343 185.892 23.7943C185.192 23.0543 184.332 22.6843 183.312 22.6843C182.292 22.6843 181.422 23.0543 180.702 23.7943C180.002 24.5143 179.652 25.5143 179.652 26.7943C179.652 28.0743 180.002 29.0943 180.702 29.8543C181.422 30.5943 182.292 30.9643 183.312 30.9643C184.332 30.9643 185.192 30.5943 185.892 29.8543C186.612 29.1143 186.972 28.1043 186.972 26.8243Z" fill="white"/>
</svg>
