<svg width="19" height="17" viewBox="0 0 19 17" fill="none" xmlns="http://www.w3.org/2000/svg">
<path d="M17.6 7.43764L10.6 0.43764C10.2195 0.0589386 9.66589 -0.0880082 9.14768 0.0521532C8.62947 0.192315 8.2254 0.59829 8.08768 1.11715C7.94996 1.63602 8.09951 2.18894 8.48 2.56764L12.91 6.98764H1.5C0.671573 6.98764 0 7.65921 0 8.48764C0 9.31607 0.671573 9.98764 1.5 9.98764H12.91L8.48 14.4076C8.05156 14.8366 7.92348 15.4813 8.15543 16.0415C8.38737 16.6017 8.93372 16.9671 9.54 16.9676C9.94255 16.9617 10.3253 16.792 10.6 16.4976L17.6 9.49764C18.1849 8.912 18.1849 7.96328 17.6 7.37764V7.43764Z" fill="#FF4256"/>
</svg>
