<svg width="240" height="96" viewBox="0 0 240 96" fill="none" xmlns="http://www.w3.org/2000/svg">
<path d="M222.149 68.7186H213.857V55.7312C213.857 52.6345 213.801 48.6477 209.543 48.6477C205.286 48.6477 204.563 52.0217 204.563 55.5056V68.7177H196.27V42.0107H204.232V45.6601H204.344C205.967 42.8842 208.986 41.2268 212.199 41.3461C220.605 41.3461 222.154 46.8748 222.154 54.0673L222.15 68.7186H222.149ZM186.913 38.3604C184.255 38.3604 182.1 36.2066 182.1 33.549C182.1 30.8914 184.254 28.7358 186.911 28.7358C189.569 28.7358 191.724 30.8896 191.724 33.5471C191.724 36.2047 189.571 38.3604 186.913 38.3604ZM191.06 68.7186H182.758V42.0107H191.06V68.7186ZM226.284 21.0339H178.591C176.336 21.008 174.488 22.8142 174.461 25.0679V72.9587C174.488 75.2142 176.335 77.0214 178.591 76.9973H226.284C228.544 77.026 230.399 75.2188 230.431 72.9587V25.0651C230.398 22.8068 228.543 21.0015 226.284 21.0311M151.889 48.4573C147.743 48.4573 145.255 51.2258 145.255 55.2598C145.255 59.2937 147.742 62.065 151.889 62.065C156.037 62.065 158.53 59.3011 158.53 55.2598C158.53 51.2184 156.042 48.4573 151.889 48.4573ZM166.164 68.7029H158.53V65.1607H158.417C156.476 67.7721 153.427 69.3278 150.173 69.3657C142.205 69.3657 136.956 63.6152 136.956 55.4825C136.956 48.0136 141.601 41.1557 149.236 41.1557C152.669 41.1557 155.874 42.0948 157.755 44.6979H157.864V29.3033H166.164V68.7029ZM126.307 52.2481C126.372 49.5028 124.199 47.2251 121.453 47.1604C121.374 47.1585 121.294 47.1585 121.216 47.1604C118.201 46.9727 115.593 49.2375 115.355 52.2481H126.307ZM133.333 64.0829C130.542 67.467 126.378 69.4175 121.992 69.3962C113.7 69.3962 107.06 63.861 107.06 55.2884C107.06 46.7158 113.699 41.1834 121.992 41.1834C129.743 41.1834 134.604 46.7121 134.604 55.2884V57.8887H115.356C115.852 60.9382 118.518 63.1558 121.606 63.0883C124.005 63.0735 126.232 61.845 127.524 59.8243L133.333 64.082V64.0829ZM50.8904 42.0042H58.8539V45.6537H58.9667C60.5871 42.8768 63.6061 41.2185 66.8193 41.3396C75.2292 41.3396 76.7766 46.8729 76.7766 54.0608V68.7066H68.484V55.7219C68.484 52.6225 68.4267 48.6385 64.1644 48.6385C59.9022 48.6385 59.1885 52.0133 59.1885 55.4964V68.7029H50.896L50.8895 42.0042H50.8904ZM80.9825 29.3061H89.2751V52.8592L98.6741 41.9894H108.841L97.9568 54.3539L108.612 68.7196H98.1888L89.3851 55.5186H89.276V68.7186H80.9834L80.9816 29.307L80.9825 29.3061ZM37.9991 42.0015H46.2917V68.7085H37.9991V42.0015ZM42.1459 28.7238C44.8025 28.7238 46.9563 30.8785 46.9554 33.5351C46.9554 36.1918 44.8007 38.3456 42.144 38.3446C39.4874 38.3446 37.3345 36.1908 37.3345 33.5342C37.3345 30.8775 39.4883 28.7238 42.1449 28.7238M9.56909 29.3126H18.2018V60.757H34.1833V68.7233H9.56909V29.3126Z" fill="#0A66C2"/>
</svg>
