<svg width="240" height="96" viewBox="0 0 240 96" fill="none" xmlns="http://www.w3.org/2000/svg">
<path d="M60.5885 39.7481C62.9854 39.7481 65.2841 37.7763 65.6846 35.344C66.1577 32.9764 64.5326 31.0054 62.1383 31.0054C59.7441 31.0054 57.4436 32.9772 57.0369 35.344C56.5692 37.7763 58.127 39.7481 60.5885 39.7481ZM223.219 46.7846H228.579C229.314 46.7846 229.745 46.4902 229.91 45.8122C230.167 44.7629 230.431 43.7154 230.701 42.6696C230.86 42.0598 230.501 41.5976 229.816 41.5976H224.527C224.908 40.0993 226.391 35.2356 226.391 32.0651C226.391 25.7328 220.949 20.3458 213.228 20.3458C204.508 20.3458 198.834 26.1286 198.834 34.2659C198.834 36.6396 199.731 39.4056 200.841 41.1224C200.363 41.0953 199.885 41.0822 199.406 41.0822C192.78 41.0822 188.606 44.6336 188.606 49.8022C188.606 54.6528 192.476 56.5373 196.118 57.7918C199.354 58.9066 202.335 59.4247 202.335 61.9234C202.335 63.6078 200.695 64.5959 197.486 64.5959C193.679 64.5959 191.586 62.8241 191.054 62.1523C191.415 61.8718 191.951 61.2052 191.951 60.0948C191.951 58.5406 190.847 57.272 188.795 57.272C187.059 57.272 185.592 58.6707 185.223 60.5116C182.434 62.7656 179.391 64.2264 175.076 64.2264C170.76 64.2264 168.62 62.0422 168.62 57.3943C169.616 57.694 172.21 58.0539 173.925 58.0539C181.121 58.0539 186.026 54.8231 186.026 48.3528C186.026 44.8739 182.935 41.2202 176.82 41.2202H176.806C168.763 41.2202 164.258 46.2543 162.291 51.7915C161.74 51.6605 161.188 51.5329 160.635 51.4097C161.075 50.1814 161.391 48.7582 161.391 47.1803C161.391 44.4458 159.677 41.2202 155.091 41.2202C151.896 41.2202 148.865 43.2882 146.766 46.3871C147.288 44.3654 147.635 43.0191 147.657 42.9291C147.794 42.4005 147.571 41.8117 146.736 41.8117H142.029C141.358 41.8117 140.885 42.0458 140.694 42.8007C140.566 43.3039 138.949 49.5751 137.374 55.6802C136.382 59.4876 131.252 64.2264 124.804 64.2264C120.553 64.2264 118.349 61.8981 118.349 57.2484C119.462 57.6861 121.94 58.0531 123.653 58.0531C131.142 58.0531 135.754 54.8223 135.754 48.3519C135.754 44.873 132.663 41.2194 126.547 41.2194H126.534C117.478 41.2194 111.93 48.1702 110.99 56.0515C110.599 59.3277 107.801 63.8262 104.767 63.8262C103.289 63.8262 102.465 62.9089 102.465 61.352C102.465 60.0075 103.423 56.719 104.474 52.5971C104.826 51.2184 105.36 49.1155 105.952 46.7846H110.876C111.609 46.7846 112.038 46.4902 112.205 45.8122C112.441 44.8372 112.873 43.1353 112.995 42.6696C113.153 42.0598 112.796 41.5976 112.11 41.5976H107.268C107.268 41.5976 109.497 32.8095 109.55 32.5832C109.765 31.6895 109.008 31.174 108.216 31.3382C108.216 31.3382 104.474 32.0625 103.78 32.2049C103.082 32.3447 102.541 32.723 102.288 33.7163L100.306 41.5968H96.4182C95.6853 41.5968 95.2547 41.8921 95.0902 42.5683C94.8321 43.6176 94.5686 44.6651 94.2998 45.7117C94.1389 46.3215 94.4979 46.7837 95.1831 46.7837H98.9955C98.9681 46.8912 97.618 51.9663 96.527 56.5102C96.0133 58.6952 94.2919 63.8088 91.4724 63.8088C89.7881 63.8088 89.0772 62.9692 89.0772 61.1694C89.0772 58.3344 91.9012 51.2368 91.9012 48.0164C91.9012 43.7145 89.5653 41.222 84.7803 41.222C81.7645 41.222 78.6373 43.1467 77.3111 44.8354C77.3111 44.8354 77.7134 43.4524 77.8504 42.9212C77.9972 42.3595 77.6921 41.8082 76.9468 41.8082H72.2688C71.2733 41.8082 70.9983 42.3341 70.8516 42.9125C70.7932 43.1449 69.1071 49.686 67.4892 55.965C66.3822 60.2652 63.6927 63.8577 60.8174 63.8577C59.3392 63.8577 58.6805 62.9412 58.6805 61.3835C58.6805 60.038 59.5602 56.7172 60.6097 52.5971C61.8873 47.5796 63.0136 43.4481 63.1339 42.9658C63.2913 42.3472 63.011 41.8082 62.2047 41.8082H57.4984C56.6461 41.8082 56.341 42.2503 56.1616 42.8645C56.1616 42.8645 54.8371 47.8199 53.434 53.3353C52.4155 57.3384 51.29 61.4158 51.29 63.3317C51.29 66.7504 52.8434 69.3277 57.1147 69.3277C60.4107 69.3277 63.0198 67.6756 65.0118 65.5709C64.7192 66.7102 64.5326 67.431 64.5132 67.5043C64.3416 68.1552 64.5494 68.731 65.3257 68.731H70.1416C70.9798 68.731 71.3025 68.3981 71.4775 67.6756C71.6464 66.9863 75.2431 53.0051 75.2431 53.0051C76.1935 49.2492 78.5453 46.7627 81.8538 46.7627C83.4223 46.7627 84.7803 47.7893 84.6229 49.7839C84.4479 51.9785 81.7698 59.8624 81.7698 63.3221C81.7698 65.9414 82.753 69.3294 87.7422 69.3294C91.1426 69.3294 93.6464 67.7184 95.4669 65.6391C96.1335 67.8459 97.8992 69.3294 101.139 69.3294C106.522 69.3294 109.767 66.1746 111.673 63.005C113.255 66.6866 116.96 69.3277 122.393 69.3277C127.826 69.3277 132.217 67.0212 135.254 63.8848L134.307 67.5559C134.135 68.2173 134.427 68.7371 135.212 68.7371H139.978C140.631 68.7371 141.096 68.4095 141.264 67.7315C141.348 67.3986 142.037 64.7689 143.01 61.0314C144.87 53.8796 147.86 46.4596 152.353 46.4596C153.938 46.4596 154.588 47.335 154.588 48.7136C154.588 49.3636 154.397 49.9254 154.231 50.2268C152.054 49.7996 150.301 50.862 150.301 53.1597C150.301 54.6571 151.895 56.0174 154.047 56.0174C155.691 56.0174 157.051 55.619 158.135 54.8983C159.202 55.1158 160.266 55.3447 161.328 55.5841C161.165 56.6211 161.082 57.6687 161.078 58.7188C161.078 64.4588 165.226 69.3268 172.661 69.3268C178.488 69.3268 182.486 67.2204 185.937 64.5208C187.595 67.2029 191.784 69.3705 197.28 69.3705C204.812 69.3705 209.084 65.5002 209.084 60.3849C209.084 55.7545 205.237 54.0508 201.271 52.632C198.047 51.4805 195.357 50.855 195.357 48.6027C195.357 46.7566 196.827 45.9127 199.348 45.9127C200.983 45.9127 202.211 46.2604 202.866 46.4421C203.516 48.0505 204.862 49.831 207.159 49.831C209.102 49.831 209.975 48.3117 209.975 46.913C209.975 42.9309 203.262 42.5141 203.262 33.9741C203.262 28.664 206.303 24.2834 212.6 24.2834C216.976 24.2834 219.834 27.025 219.834 31.4509C219.834 35.0994 217.594 41.595 217.594 41.595H213.788C213.057 41.595 212.624 41.8903 212.459 42.5665C212.202 43.6158 211.937 44.6633 211.667 45.71C211.507 46.3198 211.866 46.782 212.552 46.782H216.269C216.269 46.782 212.426 60.7841 212.426 63.33C212.426 66.7486 214.376 69.3251 218.649 69.3251C224.692 69.3251 228.469 65.4442 230.111 59.8013C230.238 59.3644 229.988 59.0097 229.541 59.0097H227.235C226.774 59.0097 226.508 59.2692 226.391 59.7139C225.87 61.7172 224.58 63.8245 222.038 63.8245C220.559 63.8245 219.736 62.9071 219.736 61.3503C219.736 60.0048 220.637 56.8553 221.746 52.5953C222.275 50.5667 223.215 46.782 223.215 46.782L223.219 46.7846ZM175.568 46.5452C177.705 46.5452 178.72 47.95 178.72 49.624C178.72 52.4555 176.497 54.1827 173.021 54.1827C171.777 54.1827 170.038 53.8918 169.011 53.5537C169.442 50.9493 171.35 46.5461 175.567 46.5461L175.568 46.5452ZM125.297 46.5452C127.636 46.5452 128.448 47.95 128.448 49.624C128.448 52.4555 126.226 54.1827 122.751 54.1827C121.506 54.1827 119.767 53.8918 118.74 53.5537C119.169 50.9493 120.861 46.5461 125.297 46.5461V46.5452ZM32.815 20.2847C17.5653 20.2847 9.87683 31.0884 9.87683 40.0976C9.87683 45.5527 11.9669 50.405 16.4495 52.2135C17.1842 52.5106 17.8429 52.224 18.056 51.4194C18.2045 50.8628 18.5547 49.4589 18.7112 48.8744C18.9269 48.0793 18.8429 47.7998 18.2496 47.107C16.957 45.6008 16.1312 43.6499 16.1312 40.8874C16.1312 32.8724 22.2 25.697 31.9335 25.697C40.553 25.697 45.2884 30.9014 45.2884 37.8514C45.2884 46.996 41.1931 54.7139 35.1128 54.7139C31.7549 54.7139 29.2422 51.9698 30.0476 48.6044C31.0122 44.5864 32.8813 40.2505 32.8813 37.3508C32.8813 34.7551 31.4711 32.5893 28.5525 32.5893C25.1203 32.5893 22.3627 36.0979 22.3627 40.7982C22.3627 43.7923 23.3865 45.8166 23.3865 45.8166C23.3865 45.8166 19.8738 60.5229 19.2584 63.0985C18.0321 68.2277 19.0737 74.5155 19.1621 75.1506C19.2142 75.5272 19.7032 75.6163 19.9251 75.3324C20.2416 74.9244 24.329 69.9366 25.7197 64.9533C26.1132 63.5423 27.9769 56.2359 27.9769 56.2359C29.0918 58.3379 32.3508 60.1892 35.8175 60.1892C46.1345 60.1892 53.1352 50.8943 53.1352 38.4533C53.1352 29.0457 45.0718 20.2847 32.8158 20.2847H32.815Z" fill="#CB2027"/>
</svg>
