<svg width="194" height="45" viewBox="0 0 194 45" fill="none" xmlns="http://www.w3.org/2000/svg">
<path d="M19.9558 9.39002V22.91L15.6291 21.1492C7.94702 18.005 3.1788 12.1569 3.1788 5.80566H0V21.275C0 26.3056 4.06181 30.959 10.5077 33.1599L20.0442 36.4299V22.91L24.3709 24.6707C32.053 27.8148 36.8212 33.663 36.8212 40.0142H40V24.5449C40 19.5142 35.9382 14.8609 29.4923 12.6599L19.9558 9.39002Z" fill="white"/>
<path d="M79.91 18.72C79.91 19.94 79.63 21.06 79.07 22.08C78.51 23.08 77.65 23.89 76.49 24.51C75.33 25.13 73.89 25.44 72.17 25.44H68.99V33H63.86V11.94H72.17C73.85 11.94 75.27 12.23 76.43 12.81C77.59 13.39 78.46 14.19 79.04 15.21C79.62 16.23 79.91 17.4 79.91 18.72ZM71.78 21.36C72.76 21.36 73.49 21.13 73.97 20.67C74.45 20.21 74.69 19.56 74.69 18.72C74.69 17.88 74.45 17.23 73.97 16.77C73.49 16.31 72.76 16.08 71.78 16.08H68.99V21.36H71.78ZM81.5607 24.6C81.5607 22.88 81.8807 21.37 82.5207 20.07C83.1807 18.77 84.0707 17.77 85.1907 17.07C86.3107 16.37 87.5607 16.02 88.9407 16.02C90.1207 16.02 91.1507 16.26 92.0307 16.74C92.9307 17.22 93.6207 17.85 94.1007 18.63V16.26H99.2307V33H94.1007V30.63C93.6007 31.41 92.9007 32.04 92.0007 32.52C91.1207 33 90.0907 33.24 88.9107 33.24C87.5507 33.24 86.3107 32.89 85.1907 32.19C84.0707 31.47 83.1807 30.46 82.5207 29.16C81.8807 27.84 81.5607 26.32 81.5607 24.6ZM94.1007 24.63C94.1007 23.35 93.7407 22.34 93.0207 21.6C92.3207 20.86 91.4607 20.49 90.4407 20.49C89.4207 20.49 88.5507 20.86 87.8307 21.6C87.1307 22.32 86.7807 23.32 86.7807 24.6C86.7807 25.88 87.1307 26.9 87.8307 27.66C88.5507 28.4 89.4207 28.77 90.4407 28.77C91.4607 28.77 92.3207 28.4 93.0207 27.66C93.7407 26.92 94.1007 25.91 94.1007 24.63ZM113.142 16.08C115.102 16.08 116.662 16.72 117.822 18C119.002 19.26 119.592 21 119.592 23.22V33H114.492V23.91C114.492 22.79 114.202 21.92 113.622 21.3C113.042 20.68 112.262 20.37 111.282 20.37C110.302 20.37 109.522 20.68 108.942 21.3C108.362 21.92 108.072 22.79 108.072 23.91V33H102.942V16.26H108.072V18.48C108.592 17.74 109.292 17.16 110.172 16.74C111.052 16.3 112.042 16.08 113.142 16.08ZM122.137 24.6C122.137 22.88 122.457 21.37 123.097 20.07C123.757 18.77 124.647 17.77 125.767 17.07C126.887 16.37 128.137 16.02 129.517 16.02C130.617 16.02 131.617 16.25 132.517 16.71C133.437 17.17 134.157 17.79 134.677 18.57V10.8H139.807V33H134.677V30.6C134.197 31.4 133.507 32.04 132.607 32.52C131.727 33 130.697 33.24 129.517 33.24C128.137 33.24 126.887 32.89 125.767 32.19C124.647 31.47 123.757 30.46 123.097 29.16C122.457 27.84 122.137 26.32 122.137 24.6ZM134.677 24.63C134.677 23.35 134.317 22.34 133.597 21.6C132.897 20.86 132.037 20.49 131.017 20.49C129.997 20.49 129.127 20.86 128.407 21.6C127.707 22.32 127.357 23.32 127.357 24.6C127.357 25.88 127.707 26.9 128.407 27.66C129.127 28.4 129.997 28.77 131.017 28.77C132.037 28.77 132.897 28.4 133.597 27.66C134.317 26.92 134.677 25.91 134.677 24.63ZM151.138 33.24C149.498 33.24 148.018 32.89 146.698 32.19C145.398 31.49 144.368 30.49 143.608 29.19C142.868 27.89 142.498 26.37 142.498 24.63C142.498 22.91 142.878 21.4 143.638 20.1C144.398 18.78 145.438 17.77 146.758 17.07C148.078 16.37 149.558 16.02 151.198 16.02C152.838 16.02 154.318 16.37 155.638 17.07C156.958 17.77 157.998 18.78 158.758 20.1C159.518 21.4 159.898 22.91 159.898 24.63C159.898 26.35 159.508 27.87 158.728 29.19C157.968 30.49 156.918 31.49 155.578 32.19C154.258 32.89 152.778 33.24 151.138 33.24ZM151.138 28.8C152.118 28.8 152.948 28.44 153.628 27.72C154.328 27 154.678 25.97 154.678 24.63C154.678 23.29 154.338 22.26 153.658 21.54C152.998 20.82 152.178 20.46 151.198 20.46C150.198 20.46 149.368 20.82 148.708 21.54C148.048 22.24 147.718 23.27 147.718 24.63C147.718 25.97 148.038 27 148.678 27.72C149.338 28.44 150.158 28.8 151.138 28.8ZM167.75 19.05C168.35 18.13 169.1 17.41 170 16.89C170.9 16.35 171.9 16.08 173 16.08V21.51H171.59C170.31 21.51 169.35 21.79 168.71 22.35C168.07 22.89 167.75 23.85 167.75 25.23V33H162.62V16.26H167.75V19.05ZM174.432 24.6C174.432 22.88 174.752 21.37 175.392 20.07C176.052 18.77 176.942 17.77 178.062 17.07C179.182 16.37 180.432 16.02 181.812 16.02C182.992 16.02 184.022 16.26 184.902 16.74C185.802 17.22 186.492 17.85 186.972 18.63V16.26H192.102V33H186.972V30.63C186.472 31.41 185.772 32.04 184.872 32.52C183.992 33 182.962 33.24 181.782 33.24C180.422 33.24 179.182 32.89 178.062 32.19C176.942 31.47 176.052 30.46 175.392 29.16C174.752 27.84 174.432 26.32 174.432 24.6ZM186.972 24.63C186.972 23.35 186.612 22.34 185.892 21.6C185.192 20.86 184.332 20.49 183.312 20.49C182.292 20.49 181.422 20.86 180.702 21.6C180.002 22.32 179.652 23.32 179.652 24.6C179.652 25.88 180.002 26.9 180.702 27.66C181.422 28.4 182.292 28.77 183.312 28.77C184.332 28.77 185.192 28.4 185.892 27.66C186.612 26.92 186.972 25.91 186.972 24.63Z" fill="white"/>
</svg>
