<svg width="240" height="96" viewBox="0 0 240 96" fill="none" xmlns="http://www.w3.org/2000/svg">
<path fill-rule="evenodd" clip-rule="evenodd" d="M203.333 39.4981C203.884 40.4742 204.065 41.5856 204.124 42.8343L204.202 44.499V56.1388L204.282 57.8053C204.442 60.5268 206.397 62.5386 209.067 62.71L210.681 62.7919V44.4984L210.761 42.8337C210.828 41.5987 211.006 40.4667 211.566 39.4838C213.361 36.3084 217.323 35.2292 220.415 37.0721C221.396 37.6564 222.209 38.4953 222.775 39.5043C223.326 40.4804 223.498 41.6123 223.564 42.8337L223.644 44.4928V56.1375L223.724 57.8041C223.89 60.5392 225.829 62.5516 228.508 62.7087L230.123 62.7907V42.8343C230.123 35.4857 224.323 29.5273 217.167 29.5248C213.446 29.5211 209.904 31.1635 207.446 34.0327C204.988 31.1647 201.446 29.5211 197.725 29.523C195.034 29.523 192.537 30.3612 190.469 31.8092C189.207 30.3631 186.383 29.523 184.763 29.523V62.7913L186.384 62.7093C189.095 62.5262 191.054 60.5678 191.16 57.8047L191.247 56.1381V44.4984L191.327 42.8337C191.395 41.5775 191.565 40.4742 192.118 39.4906C193.279 37.4391 195.415 36.1768 197.725 36.1755C200.038 36.1755 202.175 37.4422 203.333 39.4975L203.333 39.4981ZM92.4282 62.7106L94.0494 62.7907H118.347L118.267 61.1316C118.047 58.3964 116.161 56.3983 113.489 56.2201L111.868 56.1381H97.291L116.726 36.1743L116.646 34.5164C116.52 31.7533 114.554 29.7571 111.868 29.6049L110.247 29.5298L85.9492 29.523L86.029 31.1877C86.2419 33.8968 88.155 35.9371 90.8053 36.0942L92.4282 36.1762H107.005L87.5703 56.14L87.6502 57.8047C87.8098 60.5467 89.7375 62.533 92.4282 62.7093V62.7112V62.7106ZM178.403 34.3922C184.73 40.8871 184.73 51.4191 178.405 57.9152C178.405 57.9158 178.404 57.9171 178.403 57.9177C172.074 64.4119 161.818 64.4119 155.488 57.9177C149.162 51.4222 149.162 40.8877 155.488 34.3922C158.524 31.274 162.641 29.5217 166.935 29.5211C171.236 29.518 175.362 31.2715 178.403 34.3941V34.3922ZM173.819 39.1032C177.613 43.0019 177.613 49.3204 173.819 53.2198C170.022 57.1161 163.869 57.1161 160.072 53.2198C156.278 49.321 156.278 43.0026 160.072 39.1032C163.869 35.2069 170.022 35.2069 173.819 39.1032ZM132.937 29.5211C137.232 29.5224 141.349 31.2752 144.384 34.3941C150.712 40.8883 150.712 51.4241 144.384 57.9177C138.055 64.4119 127.799 64.4119 121.469 57.9177C115.144 51.4222 115.144 40.8877 121.469 34.3922C124.505 31.274 128.623 29.5217 132.917 29.5211H132.937ZM139.8 39.0994C143.595 42.9988 143.595 49.3186 139.8 53.2173C136.004 57.1136 129.851 57.1136 126.053 53.2173C122.259 49.3186 122.259 43.0001 126.053 39.1007C129.85 35.2044 136.003 35.2044 139.8 39.1007V39.0988V39.0994Z" fill="#2D8CFF"/>
<path d="M41.7466 79.1535C59.6889 79.1535 74.2317 64.6081 74.2317 46.6685C74.2317 28.7289 59.6863 14.1835 41.7466 14.1835C23.807 14.1835 9.2616 28.7262 9.2616 46.6685C9.2616 64.6108 23.8044 79.1535 41.7466 79.1535Z" fill="#2196F3"/>
<path fill-rule="evenodd" clip-rule="evenodd" d="M28.3241 55.9512H49.8091V40.1983C49.8091 37.8258 47.8852 35.9018 45.5127 35.9018H24.0276V51.6547C24.0276 54.0272 25.9516 55.9512 28.3241 55.9512ZM52.6726 50.2243L61.2656 55.9512V35.8992L52.6726 41.6287V50.2217V50.2243Z" fill="white"/>
</svg>
